<svg xmlns="http://www.w3.org/2000/svg" width="23.604" height="18.355" viewBox="0 0 23.604 18.355">
  <path id="Icon_awesome-home" data-name="Icon awesome-home" d="M11.488,7.015,3.933,13.238v6.716a.656.656,0,0,0,.656.656L9.181,20.6a.656.656,0,0,0,.652-.656V16.019a.656.656,0,0,1,.656-.656h2.622a.656.656,0,0,1,.656.656v3.919a.656.656,0,0,0,.656.658l4.59.013a.656.656,0,0,0,.656-.656v-6.72L12.115,7.015A.5.5,0,0,0,11.488,7.015Zm11.933,4.229L20,8.421V2.745a.492.492,0,0,0-.492-.492H17.209a.492.492,0,0,0-.492.492V5.72L13.049,2.7a1.967,1.967,0,0,0-2.5,0L.177,11.244a.492.492,0,0,0-.066.692l1.045,1.27a.492.492,0,0,0,.693.067l9.638-7.939a.5.5,0,0,1,.627,0l9.639,7.939a.492.492,0,0,0,.692-.066l1.045-1.27a.492.492,0,0,0-.07-.694Z" transform="translate(0.001 -2.254)" fill="#fff"/>
</svg>
