<svg xmlns="http://www.w3.org/2000/svg" width="21.936" height="27.42" viewBox="0 0 21.936 27.42">
  <path id="Trazado_327" data-name="Trazado 327" d="M17.71,2H6.742A2.75,2.75,0,0,0,4,4.742V26.678A2.75,2.75,0,0,0,6.742,29.42H23.194a2.75,2.75,0,0,0,2.742-2.742V10.226ZM14.968,12.968a2.742,2.742,0,1,1-2.742,2.742A2.75,2.75,0,0,1,14.968,12.968Zm5.484,10.968H9.484v-.781a2.757,2.757,0,0,1,1.673-2.536,9.532,9.532,0,0,1,7.623,0,2.757,2.757,0,0,1,1.673,2.536Z" transform="translate(-4 -2)" fill="#194880"/>
</svg>
