<svg xmlns="http://www.w3.org/2000/svg" width="29.446" height="23.557" viewBox="0 0 29.446 23.557">
  <path id="Trazado_336" data-name="Trazado 336" d="M2066.744,659.636h-11.779l-2.945-2.945h-8.834a2.945,2.945,0,0,0-2.93,2.945l-.015,17.668a2.954,2.954,0,0,0,2.945,2.945h23.557a2.953,2.953,0,0,0,2.945-2.945V662.58A2.953,2.953,0,0,0,2066.744,659.636Zm-10.509,15.246V676.6h-2.4v-1.733a3.347,3.347,0,0,1-2.94-3.059h1.758c.088.943.735,1.677,2.38,1.677,1.765,0,2.157-.879,2.157-1.43,0-.743-.4-1.446-2.4-1.925-2.229-.535-3.754-1.454-3.754-3.3,0-1.542,1.246-2.548,2.8-2.883V662.22h2.4v1.749a3.184,3.184,0,0,1,2.564,3.044h-1.765c-.047-1-.575-1.678-2-1.678-1.35,0-2.157.607-2.157,1.478,0,.759.583,1.246,2.4,1.717s3.755,1.246,3.755,3.515C2059.031,673.683,2057.793,674.586,2056.235,674.881Z" transform="translate(-2040.242 -656.691)" fill="#194880"/>
</svg>
