<svg xmlns="http://www.w3.org/2000/svg" width="22.239" height="22.239" viewBox="0 0 22.239 22.239">
  <path id="Trazado_331" data-name="Trazado 331" d="M24,18.444a14.036,14.036,0,0,1-4.411-.7,1.261,1.261,0,0,0-1.26.3l-2.718,2.718a18.624,18.624,0,0,1-8.142-8.13l2.718-2.73A1.213,1.213,0,0,0,10.5,8.646a14.036,14.036,0,0,1-.7-4.411A1.239,1.239,0,0,0,8.56,3H4.236A1.239,1.239,0,0,0,3,4.236a21,21,0,0,0,21,21A1.239,1.239,0,0,0,25.239,24V19.679A1.239,1.239,0,0,0,24,18.444ZM14.12,3V15.355l3.707-3.707h7.413V3Z" transform="translate(-3 -3)" fill="#194880"/>
</svg>
